# xmcd
#
# Track frame offsets:
#  150
#  9438
#  19571
#  33013
#  48254
#
# Disc length: 862 seconds
#
# Revision: 0
# Processed by: cddbd v1.5.1PL2 Copyright (c) Steve Scherf et al.
# Submitted via: Collectorz.com_Music_Collector 6.11
#
DISCID=27035c05
DTITLE=Dave Arcari - Dave Arcari Vols. 1 and 2 [CD1)
DYEAR=2006
DGENRE=Blues
TTITLE0=Blue Train
TTITLE1=Stagolee
TTITLE2=Travelling Riverside Blues
TTITLE3=Preachin' Blues
TTITLE4=Trouble In Mind
EXTD=
EXTT0=
EXTT1=
EXTT2=
EXTT3=
EXTT4=
PLAYORDER=
